<?xml version="1.0" encoding="utf-8"?>
<!-- Generator: Adobe Adobe Illustrator 24.2.0, SVG Export Plug-In . SVG Version: 6.00 Build 0)  -->
<svg version="1.1" id="レイヤー_1" xmlns="http://www.w3.org/2000/svg" xmlns:xlink="http://www.w3.org/1999/xlink" x="0px"
	 y="0px" viewBox="0 0 1728 1296" style="enable-background:new 0 0 1728 1296;" xml:space="preserve">
<style type="text/css">
	.st0{fill:none;}
	.st1{fill:none;stroke:#000000;stroke-miterlimit:10;}
	.st2{fill:#6B6464;}
	.st3{fill:none;stroke:#6B6464;stroke-miterlimit:10;}
	.st4{fill:#0071BC;}
	.st5{font-family:'Copperplate';}
	.st6{font-size:120px;}
</style>
<path class="st0" d="M1131.77,314.15c-44.06,43.95-85.35,105.43-143.87,130.82c-28.33,12.29-68.37,12.42-98.86,22.18
	c-32.83,10.51-39.2,22.88-62.37,47.93c-17.25,18.65-40.72,32.65-44.01,58.64c-2.67,21.19,7.99,47.18,6.46,70.26
	c-1.33,19.97-13.11,61.33,23.44,44.89c22.49-10.11,28.07-60.69,34.91-83.22c8.52-28.07,31.06-56.83,57.5-73.91
	c24.82-16.04,53.87-12.19,73.09-38.27"/>
<path class="st1" d="M-674.32,261.31"/>
<path class="st1" d="M1139.36,286.8c-0.85,0.79-1.7,1.59-2.55,2.38"/>
<path class="st2" d="M1013.38-392.87c-7.96,6.08-16.42,11.01-26.69,11.16c-7.98,0.12-15.68-2.25-23.29-4.38
	c-7.67-2.15-15.51-4.18-23.54-4.09c-9.57,0.1-18.47,3.35-26.47,8.47c-3.56,2.28-0.27,7.99,3.33,5.7c8.42-5.35,17.49-8.14,27.49-7.3
	c8.22,0.69,16.08,3.55,23.99,5.71c7.77,2.13,15.78,3.62,23.84,2.55c9.68-1.28,18.27-6.02,25.41-12.54
	C1020.21-390.11,1016.45-395.21,1013.38-392.87z"/>
<path class="st2" d="M584.91-520.09c-7.74,6.71-14.45,13.24-25.34,13.34c-8.13,0.08-15.98-2.94-23.55-5.56
	c-8.1-2.79-16.34-5.43-24.97-5.77c-10.21-0.4-19.86,2.88-28.38,8.36c-3.83,2.46-0.28,8.61,3.58,6.13
	c9.12-5.86,19.15-8.58,29.96-6.87c8.59,1.36,16.67,4.75,24.91,7.4c7.75,2.49,15.88,4.31,24.03,2.95
	c9.76-1.62,19.27-7.96,24.95-15.99C592.37-519.32,587.58-522.41,584.91-520.09z"/>
<path class="st2" d="M696.67-373.43c-10.15,7.78-19.4,17.31-31.17,22.7c-12.35,5.66-26.01,5.27-39.03,2.54
	c-11.68-2.45-23.3-6.42-35.36-6.48c-13.36-0.06-24.74,5.76-34.15,14.99c-3.26,3.19,1.74,8.19,5,5
	c10.57-10.32,22.88-14.34,37.46-12.15c11.89,1.79,23.3,5.88,35.26,7.35c12.23,1.5,24.6-0.02,35.71-5.51
	c11.37-5.62,21.05-14.71,30.37-23.14C703.54-370.65,699.74-375.79,696.67-373.43z"/>
<path class="st2" d="M1234.34-379.19c-1.65-7.99-3.58-17.97-9.35-24.18c-0.94-1.01-2.81-1.29-3.98-0.51
	c-16.45,10.86-20.76,31.78-21.68,50.23c-0.98,19.67,1.54,40.11,7.09,59.01c0.89,3.01,4.66,2.78,5.95,0.76
	c4.78,3.41,10.74,5.43,15.93,1.46c5.77-4.4,7.58-13.18,8.7-19.9C1240.62-334.14,1238.8-357.64,1234.34-379.19z M1232.02-322.61
	c-0.5,7.22-1.16,15.63-4.87,22.04c-3.47,6-7.82,3.96-12.39-0.15c-1.1-0.98-2.37-1.09-3.45-0.69c-4.04-15.76-5.88-32.3-5.44-48.51
	c0.43-15.71,3.05-35.97,16.16-46.58c2.68,4.24,3.97,10.2,5.09,14.83c2.29,9.44,3.6,19.1,4.42,28.76
	C1232.39-342.85,1232.71-332.7,1232.02-322.61z"/>
<path class="st3" d="M991.46-481.64"/>
<path class="st2" d="M1592.93-400.71c-3.1,0-3.11,4.83,0,4.83C1596.03-395.89,1596.04-400.71,1592.93-400.71z"/>
<path class="st2" d="M987.3-539.61c-3.09,0-3.09,4.8,0,4.8C990.38-534.81,990.39-539.61,987.3-539.61z"/>
<path class="st2" d="M859.5-559.05c-3.09,0-3.09,4.8,0,4.8C862.59-554.25,862.6-559.05,859.5-559.05z"/>
<path class="st2" d="M1615.15-397.93c-3.1,0-3.11,4.83,0,4.83C1618.26-393.11,1618.26-397.93,1615.15-397.93z"/>
<path class="st2" d="M1234.55,1835.69c-3.1,0-3.11,4.83,0,4.83C1237.65,1840.51,1237.66,1835.69,1234.55,1835.69z"/>
<path class="st2" d="M400.05,1244.41"/>
<path class="st4" d="M1131.44,310.61c-25.8,25.84-54.78,48.69-78.76,76.32c-10.39,11.96-20.19,24.44-30.98,36.05
	c-10.76,11.58-22.86,23.37-38.32,28.15c-29.28,9.04-61.03,2.15-90.29,12.05c-24.79,8.39-43.74,23.5-60.43,43.33
	c-10.84,12.87-21.64,25.8-32.39,38.74c-9.48,11.41-15.56,22.71-16.8,37.63c-1.29,15.52-0.74,31.19-0.34,46.74
	c0.34,13.08-0.85,26.98,1.7,39.87c1.73,8.73,6.06,18.79,16.1,19.81c11.03,1.12,23.07-7.26,30.09-15.1
	c16.64-18.59,15.41-45.73,20.97-68.61c3.01-12.36,9.7-23.48,16.63-34.01c8.38-12.72,17.91-25.94,29.95-35.47
	c18.31-14.49,45.09-9.82,62.18-27c3.94-3.96,6.96-8.56,9.23-13.65c0.31-0.7-2.67,1.54-3.06,2.42
	c-11.25,25.51-41.48,20.02-62.04,32.36c-9.47,5.68-17.23,14.57-24.17,23.01c-8.34,10.13-15.83,21.03-22.34,32.42
	c-5.3,9.28-8.96,18.52-10.97,29.03c-2.32,12.11-3.5,24.45-6.67,36.4c-4.05,15.27-11.67,28.05-27.32,33.6
	c-10.78,3.82-19.45-0.7-23.4-11.18c-4.25-11.28-3.04-23.87-3.28-35.67c-0.31-15.1-0.94-30.22-0.59-45.33
	c0.15-6.66,0.4-13.4,1.43-19.99c1.36-8.72,5.63-16.39,10.92-23.34c9.78-12.87,21-24.79,31.19-37.37
	c8.72-10.77,17.87-21.39,29.17-29.55c11.2-8.1,24.22-13.75,37.48-17.49c27.87-7.86,58.17-1.31,85.69-10.67
	c11.59-3.94,21.41-11.9,30.21-20.2c10.35-9.76,19.59-20.62,28.71-31.5c10.01-11.94,20.06-23.63,31.19-34.56
	c13.41-13.17,27.48-25.66,41.21-38.49c6.35-5.93,12.62-11.94,18.76-18.09C1133.98,309.39,1133.37,308.68,1131.44,310.61z"/>
<path class="st4" d="M800.99,522.64c-1.38,0.66-2.76,1.33-4.13,2.01c0.5-0.85-0.21-0.87-1.66,0.52c-0.25,0.23-0.5,0.46-0.75,0.69
	c-22.94,11.55-45.08,25.83-64.44,42.56c-10.55,9.12-19.48,19.48-26.89,31.3c-8.39,13.38-15.18,27.95-25.32,40.17
	c-9.3,11.22-23.59,20.49-35.86,29.48c-16.53,12.12-33.33,23.9-50.39,35.28c-7.53,5.03-15.11,10.03-22.9,14.65
	c-1.14,0.68-9.33,6.26-10.55,5.19c-0.96-0.84-6.26,4.84-5.5,5.5c1.53,1.34,6.56-2.14,7.79-2.82c6.16-3.41,12.11-7.23,18.02-11.06
	c17.04-11.04,33.72-22.65,50.21-34.49c13.94-10.01,28.02-20.05,41.06-31.24c20.42-17.53,29.34-42.98,45.24-63.97
	c10.19-13.46,24.44-23.71,38.32-33.07c10.64-7.17,21.65-13.87,33.02-19.85c-0.11,0.18-0.21,0.37-0.33,0.54
	c0.56-0.4,1.11-0.82,1.67-1.24c2.94-1.53,5.89-3.02,8.87-4.44c1.64-0.78,3.21-2.39,4.27-3.84
	C801.04,524.1,802.56,521.89,800.99,522.64z"/>
<path class="st4" d="M754.91,767.35c-15.11,9.69-30.08,19.6-44.58,30.19c-15.51,11.33-31.26,23.32-43.83,37.95
	c-4.31,5.01-9.68,11.38-10.46,18.23c-0.01,0.09,3.29-2.02,3.56-3.19c1.93-8.37,8.09-15.16,13.98-21.1
	c8.49-8.56,17.94-16.16,27.53-23.44c16.68-12.68,34.15-24.28,51.77-35.6C753.59,769.94,756.71,766.2,754.91,767.35z"/>
<path class="st4" d="M1210.96,444.15c-11.37,10.68-22.9,20.84-35.37,30.21c-14.06,10.56-28.06,21.22-41.34,32.75
	c-14.46,12.55-28.1,26.2-39.45,41.66c-0.37,0.5-0.57,0.84-0.68,1.08c-6.21,0.1-12.42,0.46-18.61,0.89
	c-9.27,0.65-18.53,1.55-27.82,1.97c-10.19,0.46-20.25-0.74-30.27-2.61c-26.59-4.95-51.19-16.41-76.23-26.15
	c-1-0.39-3.2,3.06-3.1,3.1c20.99,8.2,41.63,17.71,63.5,23.39c17.13,4.45,34.07,6.27,51.68,5.01c16.14-1.15,32.39-3.05,48.6-2.24
	c11.48,0.57,21.7,2.88,27.99,13.25c9.99,16.48-13.35,25.27-25.17,29.46c-22.85,8.11-47.25,12.19-71.2,15.48
	c-18.79,2.59-38.09,5.21-57.1,5.26c-1.18,0-3.19,3.39-3.03,3.39c17.43-0.05,35.13-2.48,52.37-4.74
	c22.67-2.98,45.68-6.61,67.61-13.37c-0.8,0.9-1.56,2.03-1.12,1.84c8.38-3.61,25.55-11.48,32.89-1.97
	c3.66,4.74,3.65,12.69,1.21,17.94c-3.48,7.48-11.56,12.33-18.45,16.28c-24.62,14.14-51.63,24.63-79.3,30.86
	c-14.91,3.36-30.43,5.9-45.72,4.14c-1.08-0.12-3.52,3.44-3.14,3.51c15.4,2.54,32.38-1.17,47.33-4.65
	c16.93-3.95,33.73-9.26,49.57-16.46c0.3-0.14,0.61-0.28,0.91-0.41c-0.88,1-1.81,2.33-1.38,2.09c6.65-3.72,14.01-5.79,20.77-9.24
	c1.01-0.51,2.41-1.92,3.55-0.98c0.56,0.46,0.76,3.17,0.86,3.78c0.37,2.13,0.54,4.29,0.47,6.45c-0.28,8.91-4.88,16.61-11.66,22.18
	c-14.85,12.21-34.85,18.01-52.88,23.67c-8.65,2.71-17.4,5.22-25.82,8.58c-0.94,0.38-3.47,3.68-2.65,3.35
	c16.74-6.69,34.43-10.71,51.2-17.37c-5.05,4.44-8.6,10.77-9.98,17.15c-7.6,19.87-27.62,32.15-47.94,35.24
	c-0.21,0.03-0.49,0.21-0.8,0.47c-0.43-8.25-1.34-16.51-2.84-24.62c-1.5-8.12-3.43-16.46-7.28-23.83
	c-2.36-4.52-6.23-10.03-12.05-9.31c-6.91,0.85-13.11,8.52-16.72,13.81c-1.97,2.88-3.39,6.02-4.4,9.29
	c-4.19-10.57-11.16-20.54-22.31-20.14c-9.21,0.33-16.51,6.58-21.61,14.38c-0.52-3.17-1.25-6.29-2.23-9.33
	c-2.98-9.18-10.47-22.39-21.34-23.24c-8.42-0.66-15.76,7.08-20.51,13.08c-6.68,8.42-11.3,18.25-14.58,28.58
	c0.1-3.03,0.09-6.05-0.07-9.05c0.2-6.91-0.67-15.98-7.06-19.83c-5.5-3.32-12.62-1.33-18.06,1.05c-18.05,7.89-33.3,24.82-43.64,41.16
	c-11.25,17.77-20.21,42.98-3.92,60.73c17.02,18.56,46.95,14.56,58.47-7.52c2.94-5.64,5.11-11.71,6.81-17.94
	c0.08,4.05,0.45,8.07,1.24,12c2.01,10,9.14,20.27,19.24,23.37c9.98,3.06,19.37-2.81,26.21-9.63c4.99-4.97,8.96-10.82,11.73-17.2
	c0.54-0.38,1.04-0.8,1.1-0.85c0.47-0.41,1.08-0.94,1.63-1.53c0.5,1.25,1.03,2.48,1.62,3.67c3.42,6.95,8.95,13.1,16.89,14.51
	c8.02,1.42,15.8-2.08,22.52-6.47c-0.37,1.02,2.23-0.59,3.52-2.03c0.31-0.34,0.6-0.7,0.9-1.05c0.1-0.07,0.2-0.15,0.3-0.22
	c1.04-0.77,4.17-4.71,2.85-4.2c2.3-3.81,3.9-8,4.97-12.37c2.52,6.03,5.75,11.63,9.81,16.26c4.22,4.83,9.99,8.27,16.06,4.53
	c2.96-1.82,5.34-4.23,7.29-6.96c0.62-0.41,1.26-0.93,1.32-0.98c1.12-0.97,2.44-2.24,2.93-3.68c0.72-2.15,1.14-4.44,1.37-6.77
	c0.67-1.99,1.26-4,1.77-5.97c0.14-0.55-0.76-0.03-1.52,0.49c0.01-2.79-0.13-5.56-0.21-8.19c-0.01-0.33-0.03-0.66-0.04-0.98
	c10.09-0.48,21.22-7.32,28.83-12.9c9.96-7.31,18.78-16.92,23.2-28.6c0-0.01,0-0.02,0-0.03c0.03-0.07,0.06-0.15,0.08-0.22
	c0.7-3.31,1.79-6.53,3.67-9.37c2.29-3.47,5.6-5.12,9.29-6.63c0.43-0.18,1-0.82,1.52-1.49c12.9-5.8,25.8-13.68,32.94-25.93
	c4.63-7.94,5.01-16.83,2.44-25.53c-0.05-0.18-0.74,0.27-0.69,0.24c-2.36,1.43-4.83,2.63-7.34,3.72c6.84-3.44,13.5-7.22,19.58-11.65
	c9.4-6.86,18.39-16.32,15.54-28.91c-2.1-9.27-9.88-10.55-18.1-9.12c4.64-2.11,9.1-4.59,13.08-7.72c4.87-3.83,10.27-9.37,10.16-16.03
	c-0.09-5.36-3.6-10.91-8.02-14.68c-4.72-0.18-9.44-0.9-14.01-2.13c-4.04-1.09-7.85-2.64-11.41-4.55c-0.25-0.01-0.51-0.01-0.76-0.02
	c0.04-0.13,0.06-0.26,0.03-0.37c0,0,0-0.01,0-0.01c-1.16-0.65-2.28-1.35-3.38-2.07c0.12-0.12,0.22-0.24,0.29-0.33
	c19.76-26.9,46.55-47.31,72.95-67.26c11.42-8.62,22.35-17.53,32.82-27.3c10.65-9.93,21.06-20.15,32.41-29.3
	c12.98-10.46,27.29-19.4,43.64-23.38c1.8-0.44,4.15-4.8,4.34-4.84C1255.08,402.12,1232.34,424.08,1210.96,444.15z M849.82,736.61
	c-1.4,11.59-3.49,23.18-6.78,34.39c-1.46,4.98-3.15,9.94-5.45,14.6c-2.61,5.31-5.54,8.39-11.15,10.74
	c-11.63,4.85-25.27,2.1-35.03-5.56c-34.9-27.4,4.39-81.61,33.07-96.5c5.63-2.92,13.42-5.92,19.52-2.57
	c6.21,3.41,7.22,11.17,7.2,17.86c-0.02,0.08-0.03,0.16-0.03,0.24c0.01,0.16,0.01,0.32,0.02,0.47c-0.01,0.96-0.04,1.89-0.08,2.78
	c0,0.02,0.08-0.02,0.22-0.09C851.59,720.85,850.76,728.83,849.82,736.61z M906.69,724.96c-2.87,11.8-3.37,25.36-0.52,37.69
	c-0.01,0.05-0.01,0.09-0.02,0.14c-0.61,0.66-1.13,1.39-1.23,2.08c-1.35,9.69-5.38,21.16-13.49,27.26
	c-7.21,5.42-16.54,5.53-23.88,0.37c-16.05-11.29-15.44-31.95-13.37-49.38c2.07-17.52,6.13-35.74,15.41-50.96
	c4.57-7.49,12.07-15.29,21.42-10.42c8.44,4.4,13.8,15.12,16.12,23.95c1.01,3.85,1.66,7.72,2.05,11.61
	C908.12,719.91,907.28,722.5,906.69,724.96z M959.09,756.95c-0.46,7.04-1.64,15.46-5.51,21.78c-11.58,7.4-25.47,9.37-34.65-3.19
	c-3.21-4.4-5.46-9.48-6.96-14.85c1.41-8.95,2.34-18.03,2.88-27.01c0.44-7.34,0.54-14.93-0.35-22.35
	c2.96-6.57,7.68-11.83,15.31-12.93c14.96-2.16,22.88,16.6,26.1,28.13c-0.03,0.73-0.05,1.46-0.05,2.19
	c-0.03,7.95,1.06,16.69,3.37,25.09C959.2,754.86,959.16,755.91,959.09,756.95z M994.99,773.78c-0.63,1.53-1.34,3.02-2.19,4.43
	c-1.11,1.83-1.68,2.48-4.62,2.43c-5.14-0.09-9.39-4.97-12.18-8.76c-5.41-7.37-9.28-16.25-11.68-25.45
	c-0.12-5.89-0.85-11.74-1.91-17.14c-0.29-1.48-0.64-3.1-1.07-4.79c-0.07-7.01,0.79-14.39,4.05-20.65c2.37-4.56,6.99-9.9,12.68-7.44
	c4.71,2.03,7.29,7.82,9.03,12.27c2.85,7.26,4.48,15.03,5.74,22.71C995.11,745.24,996.39,759.71,994.99,773.78z M1095.05,549.83
	c0.65-0.41,1.48-1.07,2.16-1.68c0.04,0.55,0.09,1.1,0.18,1.65C1096.61,549.8,1095.83,549.82,1095.05,549.83z"/>
<path class="st4" d="M1155.35,1279.93c-0.91,0-2.46,2.6-2.33,2.6C1153.93,1282.54,1155.47,1279.93,1155.35,1279.93z"/>
<rect x="700.01" y="780.64" class="st0" width="878.69" height="100"/>
<text transform="matrix(1 0 0 1 700.0129 873.6406)" class="st5 st6">kangolog</text>
<rect x="1206.38" y="1618.36" class="st0" width="42.44" height="14.01"/>
<rect x="902.8" y="1801.61" class="st0" width="17.61" height="22.42"/>
<rect x="1018.41" y="1072.9" class="st0" width="0" height="0"/>
</svg>
